<svg width="268" height="345" viewBox="0 0 268 345" fill="none" xmlns="http://www.w3.org/2000/svg">
<path d="M186.735 176.028C173.985 176.028 163.655 165.698 163.655 152.948C163.655 151.603 163.769 150.286 163.997 149.005L108.801 117.222C104.785 120.613 99.5925 122.66 93.9261 122.66C81.1756 122.66 70.8412 112.326 70.8412 99.5799C70.8412 86.834 81.1756 76.4996 93.9261 76.4996C106.677 76.4996 117.011 86.834 117.011 99.5799C117.011 101.048 116.861 102.484 116.596 103.879L171.592 135.543C175.644 132.01 180.941 129.868 186.735 129.868C199.477 129.868 209.811 140.202 209.811 152.948C209.811 165.698 199.477 176.028 186.735 176.028ZM116.728 206.68C116.728 219.426 106.399 229.761 93.648 229.761C80.9066 229.761 70.5722 219.426 70.5722 206.68C70.5722 193.93 80.9066 183.596 93.648 183.596C99.3782 183.596 104.612 185.688 108.646 189.143L148.885 166.017C150.604 170.982 153.275 175.504 156.671 179.37L116.359 202.541C116.596 203.886 116.728 205.267 116.728 206.68ZM255.511 65.8233L145.913 3.19674C138.45 -1.06558 129.287 -1.06558 121.825 3.19674L12.2354 65.8233C4.66804 70.1448 0 78.1954 0 86.9024V214.298C0 222.968 4.62701 230.987 12.1396 235.322L200.808 344.224L200.84 266.873L255.589 235.322C263.111 230.987 267.742 222.968 267.742 214.289V86.9024C267.742 78.1954 263.074 70.1448 255.511 65.8233Z" fill="black"/>
</svg>
