<svg width="90" height="92" viewBox="0 0 90 92" fill="none" xmlns="http://www.w3.org/2000/svg">
<path d="M63.5 25.1999C58.8 20.6999 52.4 18.1999 45.9 18.2999C33.9 18.2999 23.8 26.2999 20.1 37.1999C18.2 42.8999 18.2 49.3 20.1 55L4.90001 66.7C-1.59999 53.8 -1.59996 38.3999 4.90004 25.3999C12.7 9.89989 28.5 0.0998898 45.9 0.0998898C57.3 -0.000110549 68.3 4.19989 76.6 11.9999L63.5 25.1999Z" fill="white"/>
<path d="M4.90001 66.7C12.7 82.2 28.5 92 45.9 92C58.268 92 68.7052 87.9669 76.3 80.9999C85 72.8999 90 61.0999 90 47.1999C90 44.0999 89.7 40.8999 89.2 37.8999H45.9V55.5999H70.7C69.7 61.2999 66.4 66.2999 61.5 69.4999C57.4 72.2999 52.1 73.9 45.9 73.9C33.9 73.9 23.8 65.8 20.1 55L4.90001 66.7Z" fill="white"/>
</svg>
