<?xml version="1.0" encoding="UTF-8"?>
<svg id="Calque_2" data-name="Calque 2" xmlns="http://www.w3.org/2000/svg" viewBox="0 0 122.8 122.8">
  <defs>
    <style>
      .cls-1 {
        fill: #fff;
      }
    </style>
  </defs>
  <g id="Layer_1" data-name="Layer 1">
    <g>
      <g>
        <path class="cls-1" d="m25.8,77.6c0,7.1-5.8,12.9-12.9,12.9S0,84.7,0,77.6s5.8-12.9,12.9-12.9h12.9v12.9Z"/>
        <path class="cls-1" d="m32.3,77.6c0-7.1,5.8-12.9,12.9-12.9s12.9,5.8,12.9,12.9v32.3c0,7.1-5.8,12.9-12.9,12.9s-12.9-5.8-12.9-12.9c0,0,0-32.3,0-32.3Z"/>
      </g>
      <g>
        <path class="cls-1" d="m45.2,25.8c-7.1,0-12.9-5.8-12.9-12.9S38.1,0,45.2,0s12.9,5.8,12.9,12.9v12.9h-12.9Z"/>
        <path class="cls-1" d="m45.2,32.3c7.1,0,12.9,5.8,12.9,12.9s-5.8,12.9-12.9,12.9H12.9c-7.1,0-12.9-5.8-12.9-12.9s5.8-12.9,12.9-12.9c0,0,32.3,0,32.3,0Z"/>
      </g>
      <g>
        <path class="cls-1" d="m97,45.2c0-7.1,5.8-12.9,12.9-12.9s12.9,5.8,12.9,12.9-5.8,12.9-12.9,12.9h-12.9v-12.9Z"/>
        <path class="cls-1" d="m90.5,45.2c0,7.1-5.8,12.9-12.9,12.9s-12.9-5.8-12.9-12.9V12.9c0-7.1,5.8-12.9,12.9-12.9s12.9,5.8,12.9,12.9v32.3Z"/>
      </g>
      <g>
        <path class="cls-1" d="m77.6,97c7.1,0,12.9,5.8,12.9,12.9s-5.8,12.9-12.9,12.9-12.9-5.8-12.9-12.9v-12.9h12.9Z"/>
        <path class="cls-1" d="m77.6,90.5c-7.1,0-12.9-5.8-12.9-12.9s5.8-12.9,12.9-12.9h32.3c7.1,0,12.9,5.8,12.9,12.9s-5.8,12.9-12.9,12.9h-32.3Z"/>
      </g>
    </g>
  </g>
</svg>